<svg width="72" height="72" viewBox="0 0 72 72" fill="none" xmlns="http://www.w3.org/2000/svg">
    <circle cx="36" cy="36" r="36" fill="white" />
    <path
        d="M36 72C16.1177 72 0 55.8822 0 36C0 16.1177 16.1177 0 36 0C55.8822 0 72 16.1177 72 36C72 55.8822 55.8822 72 36 72ZM46.1954 25.1953C46.1954 19.5646 41.6308 15 36.0001 15C30.3694 15 25.8048 19.5646 25.8048 25.1953C25.8048 30.826 30.3694 35.3906 36.0001 35.3906C41.6308 35.3906 46.1954 30.826 46.1954 25.1953ZM20.4216 42.0515L17.1626 50.7375C21.9853 55.5255 28.6233 58.4874 35.9532 58.5H36.0467C43.3766 58.4874 50.0147 55.5254 54.8375 50.7374L51.5785 42.0515C50.4094 38.925 47.446 36.8587 44.1291 36.7772C44.0203 36.8587 40.4316 39.4687 36 39.4687C31.5685 39.4687 27.9797 36.8587 27.871 36.7772C24.5541 36.8316 21.5907 38.925 20.4216 42.0515Z"
        fill="#5B616E" />
</svg>